<?xml version="1.0" standalone="no"?>
<!DOCTYPE svg PUBLIC "-//W3C//DTD SVG 20010904//EN"
 "http://www.w3.org/TR/2001/REC-SVG-20010904/DTD/svg10.dtd">
<svg version="1.0" xmlns="http://www.w3.org/2000/svg"
 width="200.000000pt" height="200.000000pt" viewBox="0 0 200.000000 200.000000"
 preserveAspectRatio="xMidYMid meet">
<metadata>
Created by potrace 1.15, written by Peter Selinger 2001-2017
</metadata>
<g transform="translate(0.000000,200.000000) scale(0.100000,-0.100000)"
fill="#000000" stroke="none">
<path d="M775 1289 c-72 -74 -150 -109 -243 -109 -79 0 -167 24 -237 66 -49
28 -55 29 -55 7 0 -22 76 -94 123 -117 133 -62 315 -33 435 70 l43 36 59 -41
c221 -155 467 -158 628 -7 27 26 53 46 59 46 5 0 26 -18 48 -40 21 -21 51 -42
67 -45 57 -13 79 41 31 72 -16 10 -35 27 -43 38 -65 91 -101 96 -190 25 -121
-98 -229 -133 -342 -112 -79 14 -190 69 -250 122 -25 22 -55 40 -65 40 -10 0
-41 -23 -68 -51z"/>
</g>
</svg>
